<?xml version="1.0" standalone="no"?>
<!DOCTYPE svg PUBLIC "-//W3C//DTD SVG 20010904//EN"
 "http://www.w3.org/TR/2001/REC-SVG-20010904/DTD/svg10.dtd">
<svg version="1.0" xmlns="http://www.w3.org/2000/svg"
 width="70.000000pt" height="70.000000pt" viewBox="0 0 70.000000 70.000000"
 preserveAspectRatio="xMidYMid meet">

<g transform="translate(0.000000,70.000000) scale(0.100000,-0.100000)"
fill="#000000" stroke="none">
<path d="M483 610 c-32 -29 -33 -32 -33 -110 0 -44 -2 -80 -4 -80 -2 0 -20 7
-39 15 -73 30 -148 15 -210 -44 -42 -38 -60 -79 -60 -136 0 -102 66 -178 170
-198 75 -14 184 51 212 126 12 32 15 457 4 457 -5 0 -23 -14 -40 -30z m-72
-276 c77 -74 23 -194 -87 -194 -51 0 -104 53 -104 104 0 109 115 163 191 90z"/>
</g>
</svg>
