<svg xmlns="http://www.w3.org/2000/svg" version="1.1" xmlns:xlink="http://www.w3.org/1999/xlink" width="512" height="512" x="0" y="0" viewBox="0 0 24 24" style="enable-background:new 0 0 512 512" xml:space="preserve" class=""><g><path d="m23.78 14.22-2-2a.75.75 0 1 0-1.061 1.061l.47.47-.939.939-1.47-1.47a.75.75 0 1 0-1.061 1.061l.47.47-4.763 4.763a1.75 1.75 0 0 0-.213 2.213l-.993.993a.75.75 0 1 0 1.061 1.061l.994-.994a1.747 1.747 0 0 0 2.213-.214l4.763-4.763.47.47a.75.75 0 1 0 1.061-1.061l-1.47-1.47.939-.939.47.47a.75.75 0 1 0 1.059-1.06zM17.4 11.15c-1.18-2.56-3.57-4.12-6.4-4.12-2.99 0-5.61 1.76-6.53 4.37l-1.36 3.89c-.27.77-.04 1.6.58 2.15.71.63 1.73.77 2.6.35 2.14-1.05 4.58-1.33 6.89-.86l2.43-2.43c-.27-.92-.03-1.96.7-2.69.31-.31.68-.54 1.09-.66zM8.459 5.583c-.863 0-1.849-.673-2.493-1.791-.379-.656-.582-1.369-.571-2.009.013-.723.305-1.302.803-1.589.498-.288 1.145-.251 1.777.1.56.311 1.076.843 1.454 1.499.379.655.582 1.368.571 2.008-.013.722-.305 1.302-.803 1.589a1.453 1.453 0 0 1-.738.193zM13.541 5.583c-.262 0-.512-.062-.738-.192-.498-.288-.79-.868-.803-1.59-.011-.64.192-1.353.571-2.009.378-.656.895-1.188 1.454-1.499.633-.35 1.28-.387 1.777-.1.498.287.79.867.803 1.589.011.64-.192 1.353-.571 2.009-.644 1.118-1.631 1.792-2.493 1.792zM3.145 8.824c-.147 0-.3-.016-.455-.046-.597-.12-1.197-.457-1.691-.951-1.091-1.09-1.323-2.566-.53-3.359.399-.399 1.009-.551 1.668-.421.597.12 1.197.457 1.69.951 1.091 1.09 1.323 2.566.53 3.359-.305.306-.733.467-1.212.467zM18.855 8.824c-.479 0-.907-.162-1.212-.468-.793-.792-.561-2.268.53-3.358.493-.494 1.094-.832 1.69-.951.661-.132 1.269.021 1.668.421.793.793.561 2.269-.53 3.359-.494.494-1.095.832-1.691.951a2.318 2.318 0 0 1-.455.046zm-.328-3.472h.01z" fill="#1a6896" opacity="1" data-original="#000000" class=""></path></g></svg>