<svg xmlns="http://www.w3.org/2000/svg" version="1.1" xmlns:xlink="http://www.w3.org/1999/xlink" width="512" height="512" x="0" y="0" viewBox="0 0 24 24" style="enable-background:new 0 0 512 512" xml:space="preserve" class=""><g><path d="M20.632 23.87 17.5 21.739l-3.132 2.131a.752.752 0 0 1-1.149-.804l.975-3.85-2.932-2.503a.75.75 0 0 1 .444-1.319l3.735-.211 1.354-3.69a.751.751 0 0 1 1.409-.001l1.354 3.69 3.735.211a.75.75 0 0 1 .444 1.319l-2.932 2.503.975 3.85a.748.748 0 0 1-.297.798.746.746 0 0 1-.851.007zM15.55 2.91h-.73c-.6 0-1.17-.29-1.53-.76l-.44-.59C12.12.58 10.95 0 9.73 0H6.82a3.91 3.91 0 0 0-3.91 3.91V6.5c0 3.51-.88 6.69-2.78 10-.27.48-.11 1.09.37 1.37.49.27 1.09.11 1.37-.37 1.82-3.2 2.79-6.28 3-9.61l.66 1.39c.22.44.67.72 1.15.72.66 0 1.21-.5 1.27-1.16L8.59 2h1.14c.6 0 1.17.29 1.52.76l.44.59c.74.97 1.9 1.56 3.13 1.56h.73c.25 0 .45.2.45.45v.56c0 .17-.1.33-.25.41l-3.82 1.9a2.487 2.487 0 0 0-1.18 3.12l.85 2.05 2.12-.12-1.11-2.68c-.09-.22.01-.47.22-.58l3.81-1.91C17.48 7.7 18 6.85 18 5.92v-.56c0-1.35-1.1-2.45-2.45-2.45z" fill="#1a6896" opacity="1" data-original="#000000" class=""></path></g></svg>